<svg width="201" height="139" viewBox="0 0 201 139" fill="none" xmlns="http://www.w3.org/2000/svg">
<path d="M116.077 60.3711H97.0457V138.463H116.077V60.3711Z" fill="#EBEBEB"/>
<path d="M116.076 60.3711H106.56V138.463H116.076V60.3711Z" fill="#E0E0E0"/>
<path d="M105.938 51.0864H99.2177V60.3672H105.938V51.0864Z" fill="#EBEBEB"/>
<path d="M105.938 51.0864H104.337V60.3672H105.938V51.0864Z" fill="#E0E0E0"/>
<path d="M116.633 59.8298H95.4593V60.3703H116.633V59.8298Z" fill="#E0E0E0"/>
<path d="M102.413 64.4167H100.802V69.7403H102.413V64.4167Z" fill="white"/>
<path d="M106.56 71.8318C106.56 71.8893 104.43 71.9353 101.803 71.9353C99.1758 71.9353 97.0457 71.8893 97.0457 71.8318C97.0457 71.7743 99.1758 71.7322 101.803 71.7322C104.43 71.7322 106.56 71.782 106.56 71.8318Z" fill="#E0E0E0"/>
<path d="M112.013 64.4167H110.402V69.7403H112.013V64.4167Z" fill="#F5F5F5"/>
<path d="M116.16 71.8318C116.16 71.8893 114.03 71.9353 111.403 71.9353C108.776 71.9353 106.643 71.8893 106.643 71.8318C106.643 71.7743 108.773 71.7322 111.403 71.7322C114.032 71.7322 116.16 71.782 116.16 71.8318Z" fill="#EBEBEB"/>
<path d="M112.013 74.9907H110.402V80.3143H112.013V74.9907Z" fill="#F5F5F5"/>
<path d="M116.16 82.406C116.16 82.4596 114.03 82.5057 111.403 82.5057C108.776 82.5057 106.643 82.4596 106.643 82.406C106.643 82.3523 108.773 82.3025 111.403 82.3025C114.032 82.3025 116.16 82.3485 116.16 82.406Z" fill="#EBEBEB"/>
<path d="M112.013 85.8799H110.402V91.2035H112.013V85.8799Z" fill="#F5F5F5"/>
<path d="M116.16 93.295C116.16 93.3525 114.03 93.3985 111.403 93.3985C108.776 93.3985 106.643 93.3525 106.643 93.295C106.643 93.2375 108.773 93.1953 111.403 93.1953C114.032 93.1953 116.16 93.2413 116.16 93.295Z" fill="#EBEBEB"/>
<path d="M112.013 96.7725H110.402V102.096H112.013V96.7725Z" fill="#F5F5F5"/>
<path d="M116.16 104.188C116.16 104.245 114.03 104.287 111.403 104.287C108.776 104.287 106.643 104.245 106.643 104.188C106.643 104.13 108.773 104.084 111.403 104.084C114.032 104.084 116.16 104.13 116.16 104.188Z" fill="#EBEBEB"/>
<path d="M112.013 107.351H110.402V112.674H112.013V107.351Z" fill="#F5F5F5"/>
<path d="M116.16 114.77C116.16 114.828 114.03 114.874 111.403 114.874C108.776 114.874 106.643 114.828 106.643 114.77C106.643 114.713 108.773 114.67 111.403 114.67C114.032 114.67 116.16 114.713 116.16 114.77Z" fill="#EBEBEB"/>
<path d="M112.013 117.975H110.402V123.298H112.013V117.975Z" fill="#F5F5F5"/>
<path d="M112.013 128.737H110.402V134.061H112.013V128.737Z" fill="#F5F5F5"/>
<path d="M116.16 125.39C116.16 125.444 114.03 125.49 111.403 125.49C108.776 125.49 106.643 125.444 106.643 125.39C106.643 125.337 108.773 125.287 111.403 125.287C114.032 125.287 116.16 125.333 116.16 125.39Z" fill="#EBEBEB"/>
<path d="M102.413 75.1521H100.802V80.4757H102.413V75.1521Z" fill="white"/>
<path d="M106.56 82.5671C106.56 82.6208 104.43 82.6668 101.803 82.6668C99.1758 82.6668 97.0457 82.6208 97.0457 82.5671C97.0457 82.5135 99.1758 82.4636 101.803 82.4636C104.43 82.4636 106.56 82.5288 106.56 82.5671Z" fill="#E0E0E0"/>
<path d="M102.413 85.8838H100.802V91.2074H102.413V85.8838Z" fill="white"/>
<path d="M106.56 93.2989C106.56 93.3564 104.43 93.4024 101.803 93.4024C99.1758 93.4024 97.0457 93.3564 97.0457 93.2989C97.0457 93.2414 99.1758 93.1992 101.803 93.1992C104.43 93.1992 106.56 93.2452 106.56 93.2989Z" fill="#E0E0E0"/>
<path d="M102.413 96.6191H100.802V101.943H102.413V96.6191Z" fill="white"/>
<path d="M106.56 104.023C106.56 104.076 104.43 104.122 101.803 104.122C99.1758 104.122 97.0457 104.076 97.0457 104.023C97.0457 103.969 99.1758 103.919 101.803 103.919C104.43 103.919 106.56 103.977 106.56 104.023Z" fill="#E0E0E0"/>
<path d="M102.413 107.351H100.802V112.674H102.413V107.351Z" fill="white"/>
<path d="M106.56 114.77C106.56 114.828 104.43 114.874 101.803 114.874C99.1758 114.874 97.0457 114.828 97.0457 114.77C97.0457 114.713 99.1758 114.67 101.803 114.67C104.43 114.67 106.56 114.713 106.56 114.77Z" fill="#E0E0E0"/>
<path d="M102.413 118.086H100.802V123.41H102.413V118.086Z" fill="white"/>
<path d="M106.56 125.517C106.56 125.57 104.43 125.616 101.803 125.616C99.1758 125.616 97.0457 125.57 97.0457 125.517C97.0457 125.463 99.1758 125.413 101.803 125.413C104.43 125.413 106.56 125.444 106.56 125.517Z" fill="#E0E0E0"/>
<path d="M102.413 128.818H100.802V134.141H102.413V128.818Z" fill="white"/>
<path d="M51.1077 10.5359H29.5084V117.852H51.1077V10.5359Z" fill="#F5F5F5"/>
<path d="M51.1077 10.5359H40.308V117.556H51.1077V10.5359Z" fill="#EBEBEB"/>
<path d="M39.6005 0H31.9739V10.5359H39.6005V0Z" fill="#F5F5F5"/>
<path d="M39.603 0H37.7839V10.5359H39.603V0Z" fill="#EBEBEB"/>
<path d="M27.7064 10.535V9.92163H51.7393V10.535" fill="#E0E0E0"/>
<path d="M35.5999 15.1304H33.771V21.1755H35.5999V15.1304Z" fill="#FAFAFA"/>
<path d="M40.308 23.5437C40.308 23.6089 37.8891 23.6587 34.907 23.6587C31.9249 23.6587 29.5084 23.6089 29.5084 23.5437C29.5084 23.4785 31.9249 23.4287 34.907 23.4287C37.8891 23.4287 40.308 23.4824 40.308 23.5437Z" fill="#E0E0E0"/>
<path d="M46.4949 15.1304H44.666V21.1755H46.4949V15.1304Z" fill="#E0E0E0"/>
<path d="M51.2008 23.5437C51.2008 23.6089 48.7843 23.6587 45.8145 23.6587C42.8447 23.6587 40.4135 23.6089 40.4135 23.5437C40.4135 23.4785 42.8324 23.4287 45.8145 23.4287C48.7966 23.4287 51.2008 23.4824 51.2008 23.5437Z" fill="#E0E0E0"/>
<path d="M46.4949 27.1284H44.666V33.1736H46.4949V27.1284Z" fill="#E0E0E0"/>
<path d="M51.2008 35.5454C51.2008 35.6068 48.7843 35.6604 45.8145 35.6604C42.8447 35.6604 40.4135 35.6068 40.4135 35.5454C40.4135 35.4841 42.8324 35.4304 45.8145 35.4304C48.7966 35.4304 51.2008 35.4803 51.2008 35.5454Z" fill="#E0E0E0"/>
<path d="M46.4949 39.4915H44.666V45.5366H46.4949V39.4915Z" fill="#E0E0E0"/>
<path d="M51.2008 47.9043C51.2008 47.9695 48.7843 48.0193 45.8145 48.0193C42.8447 48.0193 40.4135 47.9695 40.4135 47.9043C40.4135 47.8391 42.8324 47.7893 45.8145 47.7893C48.7966 47.7893 51.2008 47.843 51.2008 47.9043Z" fill="#E0E0E0"/>
<path d="M46.4949 51.8503H44.666V57.8955H46.4949V51.8503Z" fill="#E0E0E0"/>
<path d="M51.2008 60.2673C51.2008 60.3287 48.7843 60.3823 45.8145 60.3823C42.8447 60.3823 40.4135 60.3287 40.4135 60.2673C40.4135 60.206 42.8324 60.1523 45.8145 60.1523C48.7966 60.1523 51.2008 60.2022 51.2008 60.2673Z" fill="#E0E0E0"/>
<path d="M46.4949 63.8596H44.666V69.9048H46.4949V63.8596Z" fill="#E0E0E0"/>
<path d="M51.2008 72.2732C51.2008 72.3384 48.7843 72.3882 45.8145 72.3882C42.8447 72.3882 40.4135 72.3384 40.4135 72.2732C40.4135 72.208 42.8324 72.1582 45.8145 72.1582C48.7966 72.1582 51.2008 72.2119 51.2008 72.2732Z" fill="#E0E0E0"/>
<path d="M46.4949 75.9158H44.666V81.9609H46.4949V75.9158Z" fill="#E0E0E0"/>
<path d="M46.4949 88.1292H44.666V94.1743H46.4949V88.1292Z" fill="#E0E0E0"/>
<path d="M51.2008 84.3291C51.2008 84.3943 48.7843 84.4441 45.8145 84.4441C42.8447 84.4441 40.4135 84.3943 40.4135 84.3291C40.4135 84.2639 42.8324 84.2141 45.8145 84.2141C48.7966 84.2141 51.2008 84.2678 51.2008 84.3291Z" fill="#E0E0E0"/>
<path d="M35.5999 27.3127H33.771V33.3579H35.5999V27.3127Z" fill="#FAFAFA"/>
<path d="M40.308 35.7258C40.308 35.791 37.8891 35.8408 34.907 35.8408C31.9249 35.8408 29.5084 35.791 29.5084 35.7258C29.5084 35.6607 31.9249 35.6108 34.907 35.6108C37.8891 35.6108 40.308 35.6645 40.308 35.7258Z" fill="#E0E0E0"/>
<path d="M35.5999 39.4951H33.771V45.5403H35.5999V39.4951Z" fill="#FAFAFA"/>
<path d="M40.308 47.9082C40.308 47.9734 37.8891 48.0232 34.907 48.0232C31.9249 48.0232 29.5084 47.9734 29.5084 47.9082C29.5084 47.843 31.9249 47.7932 34.907 47.7932C37.8891 47.7932 40.308 47.8469 40.308 47.9082Z" fill="#E0E0E0"/>
<path d="M35.5999 51.6775H33.771V57.7227H35.5999V51.6775Z" fill="#FAFAFA"/>
<path d="M40.308 60.0908C40.308 60.156 37.8891 60.2058 34.907 60.2058C31.9249 60.2058 29.5084 60.156 29.5084 60.0908C29.5084 60.0257 31.9249 59.9758 34.907 59.9758C37.8891 59.9758 40.308 60.0295 40.308 60.0908Z" fill="#E0E0E0"/>
<path d="M35.5999 63.8596H33.771V69.9048H35.5999V63.8596Z" fill="#FAFAFA"/>
<path d="M40.308 72.2732C40.308 72.3384 37.8891 72.3882 34.907 72.3882C31.9249 72.3882 29.5084 72.3384 29.5084 72.2732C29.5084 72.208 31.9249 72.1582 34.907 72.1582C37.8891 72.1582 40.308 72.2119 40.308 72.2732Z" fill="#E0E0E0"/>
<path d="M35.5999 76.0425H33.771V82.0876H35.5999V76.0425Z" fill="#FAFAFA"/>
<path d="M40.308 84.448C40.308 84.5132 37.8891 84.563 34.907 84.563C31.9249 84.563 29.5084 84.5132 29.5084 84.448C29.5084 84.3828 31.9249 84.333 34.907 84.333C37.8891 84.333 40.308 84.3905 40.308 84.448Z" fill="#E0E0E0"/>
<path d="M35.5999 88.2212H33.771V94.2664H35.5999V88.2212Z" fill="#FAFAFA"/>
<path d="M80.0152 72.5767H48.483V137.78H80.0152V72.5767Z" fill="#EBEBEB"/>
<path d="M80.0152 72.5767H65.2297V137.78H80.0152V72.5767Z" fill="#E0E0E0"/>
<path d="M57.9285 81.4006H55.0934V92.1975H57.9285V81.4006Z" fill="#F5F5F5"/>
<path d="M57.9285 123.667H55.0934V134.467H57.9285V123.667Z" fill="#F5F5F5"/>
<path d="M65.2297 96.4382C65.2297 96.5609 61.4812 96.6567 56.8563 96.6567C52.2314 96.6567 48.483 96.5609 48.483 96.4382C48.483 96.3155 52.2314 96.2197 56.8563 96.2197C61.4812 96.2197 65.2297 96.3194 65.2297 96.4382Z" fill="#F5F5F5"/>
<path d="M57.9285 102.695H55.0934V113.492H57.9285V102.695Z" fill="#F5F5F5"/>
<path d="M65.2297 117.733C65.2297 117.851 61.4812 117.951 56.8563 117.951C52.2314 117.951 48.483 117.851 48.483 117.733C48.483 117.614 52.2314 117.51 56.8563 117.51C61.4812 117.51 65.2297 117.61 65.2297 117.733Z" fill="#F5F5F5"/>
<path d="M71.2059 81.4006H68.3707V92.1975H71.2059V81.4006Z" fill="#F5F5F5"/>
<path d="M77.3563 81.4006H74.5211V92.1975H77.3563V81.4006Z" fill="#F5F5F5"/>
<path d="M71.2059 101.892H68.3707V112.689H71.2059V101.892Z" fill="#F5F5F5"/>
<path d="M77.3563 101.892H74.5211V112.689H77.3563V101.892Z" fill="#F5F5F5"/>
<path d="M71.2059 122.385H68.3707V133.182H71.2059V122.385Z" fill="#F5F5F5"/>
<path d="M77.3563 122.385H74.5211V133.182H77.3563V122.385Z" fill="#F5F5F5"/>
<path d="M82.3851 70.3044H46.1104V72.6573H82.3851V70.3044Z" fill="#E0E0E0"/>
<path d="M80.2355 72.8757C80.2355 72.9984 73.1867 73.098 64.4951 73.098C55.8034 73.098 48.7547 72.9984 48.7547 72.8757C48.7547 72.7531 55.801 72.6572 64.4951 72.6572C73.1891 72.6572 80.2355 72.7569 80.2355 72.8757Z" fill="#EBEBEB"/>
<path d="M47.8171 137.788H16.0327L15.8931 59.0356H47.68L47.8171 137.788Z" fill="#EBEBEB"/>
<path d="M47.6778 59.0393H31.7856V137.788H47.6778V59.0393Z" fill="#E0E0E0"/>
<path d="M30.7473 43.533H19.5241V59.0355H30.7473V43.533Z" fill="#EBEBEB"/>
<path d="M30.7471 43.533H28.071V59.0355H30.7471V43.533Z" fill="#E0E0E0"/>
<path d="M48.6102 58.1335H13.2463V59.0393H48.6102V58.1335Z" fill="#E0E0E0"/>
<path d="M24.8588 65.7983H22.1681V74.6914H24.8588V65.7983Z" fill="white"/>
<path d="M31.7878 78.1842C31.7878 78.2762 28.2303 78.3529 23.8429 78.3529C19.4555 78.3529 15.8956 78.2762 15.8956 78.1842C15.8956 78.0922 19.453 78.0117 23.8429 78.0117C28.2328 78.0117 31.7878 78.0884 31.7878 78.1842Z" fill="#E0E0E0"/>
<path d="M40.8905 65.7983H38.1998V74.6914H40.8905V65.7983Z" fill="#F5F5F5"/>
<path d="M47.8168 78.1842C47.8168 78.2762 44.2594 78.3529 39.8719 78.3529C35.4845 78.3529 31.9246 78.2762 31.9246 78.1842C31.9246 78.0922 35.482 78.0117 39.8719 78.0117C44.2618 78.0117 47.8168 78.0884 47.8168 78.1842Z" fill="#EBEBEB"/>
<path d="M40.8905 83.4541H38.1998V92.3472H40.8905V83.4541Z" fill="#F5F5F5"/>
<path d="M47.8168 95.8398C47.8168 95.9318 44.2594 96.0085 39.8719 96.0085C35.4845 96.0085 31.9246 95.9318 31.9246 95.8398C31.9246 95.7478 35.482 95.6711 39.8719 95.6711C44.2618 95.6711 47.8168 95.744 47.8168 95.8398Z" fill="#EBEBEB"/>
<path d="M40.8905 101.647H38.1998V110.54H40.8905V101.647Z" fill="#F5F5F5"/>
<path d="M47.8168 114.029C47.8168 114.121 44.2594 114.197 39.8719 114.197C35.4845 114.197 31.9246 114.121 31.9246 114.029C31.9246 113.937 35.482 113.86 39.8719 113.86C44.2618 113.86 47.8168 113.937 47.8168 114.029Z" fill="#EBEBEB"/>
<path d="M40.8905 119.836H38.1998V128.73H40.8905V119.836Z" fill="#F5F5F5"/>
<path d="M47.8168 132.218C47.8168 132.314 44.2594 132.387 39.8719 132.387C35.4845 132.387 31.9246 132.314 31.9246 132.218C31.9246 132.122 35.482 132.042 39.867 132.042C44.252 132.042 47.8168 132.126 47.8168 132.218Z" fill="#EBEBEB"/>
<path d="M24.8588 83.7266H22.1681V92.6197H24.8588V83.7266Z" fill="white"/>
<path d="M31.7878 96.1084C31.7878 96.2042 28.2303 96.277 23.8429 96.277C19.4555 96.277 15.8956 96.2042 15.8956 96.1084C15.8956 96.0125 19.453 95.9397 23.8429 95.9397C28.2328 95.9397 31.7878 96.0164 31.7878 96.1084Z" fill="#E0E0E0"/>
<path d="M24.8588 101.651H22.1681V110.544H24.8588V101.651Z" fill="white"/>
<path d="M31.7878 114.037C31.7878 114.129 28.2303 114.205 23.8429 114.205C19.4555 114.205 15.8956 114.129 15.8956 114.037C15.8956 113.945 19.453 113.864 23.8429 113.864C28.2328 113.864 31.7878 113.941 31.7878 114.037Z" fill="#E0E0E0"/>
<path d="M24.8588 119.579H22.1681V128.472H24.8588V119.579Z" fill="white"/>
<path d="M31.7878 131.961C31.7878 132.057 28.2303 132.13 23.8429 132.13C19.4555 132.13 15.8956 132.057 15.8956 131.961C15.8956 131.866 19.453 131.793 23.8429 131.793C28.2328 131.793 31.7878 131.869 31.7878 131.961Z" fill="#E0E0E0"/>
<path d="M77.9141 9.81805C78.0292 8.49771 76.8442 7.41534 75.9554 7.30403C75.5294 7.2503 75.0887 7.35009 74.6847 7.13131C73.8131 6.65538 73.4606 4.88597 72.6134 4.32559C71.9769 3.90339 71.2448 4.27953 70.6278 4.76698C70.0108 5.25443 69.4037 5.86471 68.7132 5.91844C68.1134 5.97985 67.4621 5.63058 66.9382 6.08732C66.5464 6.43276 66.3408 7.13899 65.9809 7.55352C65.6063 7.91663 65.1724 8.10069 64.7322 8.08319C64.2936 8.06779 63.857 8.1797 63.4444 8.41327C63.0453 8.70114 62.7099 9.36131 62.8005 10.033L77.9141 9.81805Z" fill="#EBEBEB"/>
<path d="M83.2469 48.369C83.362 47.0525 82.1746 45.9701 81.2883 45.855C80.8647 45.8013 80.424 45.9049 80.02 45.6861C79.1484 45.2063 78.7959 43.4408 77.9487 42.8804C77.3122 42.4582 76.5801 42.8305 75.9631 43.318C75.3461 43.8054 74.739 44.4195 74.0461 44.4694C73.4487 44.527 72.7974 44.1815 72.2735 44.6383C71.8817 44.9799 71.6761 45.6861 71.3162 46.1045C70.9411 46.4656 70.5076 46.6495 70.0675 46.6342C69.6289 46.6184 69.1923 46.7303 68.7797 46.9642C68.3806 47.2521 68.0452 47.9123 68.1333 48.584L83.2469 48.369Z" fill="#FAFAFA"/>
<path d="M172.335 13.2572C172.453 11.9407 171.265 10.8583 170.377 10.7432C169.953 10.6933 169.51 10.7931 169.108 10.5743C168.237 10.0984 167.884 8.32895 167.037 7.76857C166.4 7.34637 165.668 7.72251 165.051 8.20612C164.434 8.68974 163.827 9.30769 163.134 9.35758C162.534 9.41899 161.886 9.06972 161.359 9.52647C160.97 9.86807 160.764 10.5743 160.404 10.9927C160.03 11.3554 159.596 11.5394 159.156 11.5223C158.717 11.5066 158.281 11.6185 157.868 11.8524C157.469 12.1403 157.133 12.8005 157.222 13.4721L172.335 13.2572Z" fill="#EBEBEB"/>
<path d="M103.546 32.0225C103.759 29.6159 101.587 27.6354 99.964 27.4166C99.1879 27.3169 98.3824 27.5049 97.6454 27.1019C96.054 26.2306 95.4174 23.0027 93.8627 21.9779C92.6998 21.2103 91.363 21.8935 90.2343 22.7801C89.1056 23.6667 87.994 24.7875 86.7356 24.9141C85.6412 25.0254 84.4513 24.3883 83.494 25.2289C82.7815 25.8507 82.4069 27.148 81.7483 27.9156C81.0897 28.6833 80.2646 28.8176 79.4665 28.8828C78.6683 28.9481 77.8408 28.9634 77.1136 29.4854C76.3865 30.0074 75.7842 31.2126 75.936 32.4447L103.546 32.0225Z" fill="#F5F5F5"/>
<path d="M117.198 3.59263C117.116 3.57089 117.034 3.54141 116.953 3.50436C116.724 3.42688 116.488 3.4126 116.256 3.46214C115.919 3.53658 115.601 3.75428 115.337 4.0916C115.016 4.50592 114.789 5.07312 114.691 5.70748L114.652 5.94545L114.593 5.719C114.436 5.11578 114.165 4.60179 113.817 4.24513C113.533 3.95458 113.207 3.78159 112.87 3.74233C112.555 3.71551 112.24 3.77792 111.939 3.92656C112.015 3.85292 112.097 3.79852 112.184 3.76536C112.409 3.65367 112.646 3.60686 112.882 3.62718C113.235 3.65096 113.578 3.82186 113.876 4.12231C114.244 4.48876 114.53 5.02516 114.696 5.65759H114.598C114.702 5.00114 114.94 4.41609 115.276 3.99181C115.511 3.70532 115.786 3.50835 116.077 3.41643C116.369 3.32451 116.671 3.34016 116.958 3.46214C117.042 3.48476 117.123 3.52884 117.198 3.59263Z" fill="#EBEBEB"/>
<path d="M126.671 20.1696C126.671 20.1696 126.492 20.0698 126.164 19.9585C125.699 19.7978 125.22 19.7679 124.749 19.8703C124.049 20.017 123.39 20.4633 122.842 21.1599C122.172 22.0169 121.699 23.1935 121.495 24.5106V24.549L121.456 24.787L121.397 24.5721C121.071 23.3159 120.509 22.2449 119.786 21.5015C119.2 20.903 118.525 20.549 117.827 20.4729C117.355 20.4193 116.88 20.488 116.422 20.6763C116.096 20.8106 115.932 20.9296 115.932 20.9142C115.97 20.8734 116.011 20.8411 116.055 20.8183C116.175 20.74 116.297 20.6721 116.422 20.6149C116.995 20.3544 117.598 20.2882 118.188 20.4205C118.779 20.5529 119.346 20.8808 119.85 21.3825C120.592 22.1296 121.17 23.2162 121.505 24.4953H121.407V24.4569C121.613 23.105 122.101 21.8992 122.793 21.0294C123.263 20.4427 123.814 20.0336 124.401 19.834C124.989 19.6343 125.598 19.6493 126.181 19.8779C126.309 19.9255 126.434 19.9871 126.556 20.0622C126.597 20.0898 126.636 20.1259 126.671 20.1696Z" fill="#EBEBEB"/>
<path d="M145.658 10.6124C145.658 10.6124 145.557 10.5664 145.376 10.5088C145.122 10.4275 144.86 10.4158 144.603 10.4742C144.221 10.5561 143.862 10.8019 143.564 11.1843C143.2 11.6506 142.942 12.2907 142.83 13.0075L142.791 13.2493L142.734 13.0228C142.554 12.3433 142.249 11.7633 141.858 11.357C141.537 11.0289 141.168 10.8335 140.786 10.789C140.527 10.7579 140.266 10.7916 140.014 10.8888C139.838 10.9579 139.743 11.0193 139.738 11.0078C139.733 10.9962 139.76 10.9809 139.804 10.9502C139.869 10.9024 139.936 10.8614 140.005 10.8274C140.259 10.7047 140.525 10.654 140.79 10.6777C141.188 10.7058 141.574 10.8978 141.909 11.2342C142.322 11.6473 142.643 12.2507 142.827 12.9614H142.732C142.846 12.205 143.117 11.5297 143.503 11.0423C143.766 10.7188 144.074 10.4965 144.402 10.3932C144.73 10.2899 145.068 10.3084 145.391 10.4474C145.461 10.4753 145.53 10.5125 145.597 10.5587C145.636 10.5894 145.66 10.6047 145.658 10.6124Z" fill="#EBEBEB"/>
<path d="M131.567 3.01685C131.567 3.01685 131.469 3.1934 131.296 3.50046C131.05 3.93918 130.828 4.40905 130.632 4.90524C129.983 6.54737 129.644 8.44331 129.653 10.3747V10.4438H129.55C129.45 9.4051 129.235 8.40204 128.913 7.48068C128.473 6.21672 127.852 5.13012 127.099 4.30648C126.884 4.07235 126.759 3.95337 126.764 3.94185C126.797 3.95934 126.83 3.98387 126.859 4.01478C126.949 4.08671 127.037 4.16615 127.121 4.25275C127.435 4.56785 127.727 4.93316 127.993 5.3428C128.88 6.71156 129.462 8.49229 129.653 10.4207H129.55V10.3708C129.541 8.40934 129.898 6.48656 130.578 4.83999C130.779 4.3475 131.009 3.88612 131.266 3.46208C131.354 3.30855 131.435 3.20492 131.484 3.12815C131.509 3.08589 131.537 3.04851 131.567 3.01685Z" fill="#EBEBEB"/>
<path d="M175.596 138.9C175.596 138.954 139.38 139 94.715 139C50.0499 139 13.8242 138.95 13.8242 138.9C13.8242 138.851 50.0327 138.801 94.715 138.801C139.397 138.801 175.596 138.843 175.596 138.9Z" fill="#263238"/>
<path d="M142.925 138.674C148.518 138.183 159.791 136.191 166.285 135.017C169.207 134.491 172.446 133.627 175.219 132.292C177.993 130.956 180.58 128.392 181.693 124.738C182.439 122.285 182.393 119.211 181.051 117.269C179.441 114.939 176.679 115.031 174.367 115.734C175.124 114.735 176.053 114.001 177.072 113.598C178.091 113.195 179.169 113.135 180.209 113.423C181.25 113.711 182.221 114.339 183.037 115.25C183.853 116.161 184.488 117.328 184.886 118.647C185.972 117.907 187.197 117.613 188.408 117.802C189.619 117.991 190.761 118.654 191.691 119.708C192.622 120.761 193.299 122.159 193.638 123.726C193.977 125.293 193.962 126.959 193.597 128.515C194.492 128.094 195.455 127.997 196.387 128.232C197.32 128.468 198.19 129.029 198.909 129.858C200.328 131.535 200.773 136.195 200.343 138.663L142.925 138.674Z" fill="#EBEBEB"/>
<path d="M161.325 133.067C163.956 132.433 166.617 131.785 169.055 130.315C169.578 130.052 170.041 129.616 170.403 129.048C170.733 128.449 170.819 127.551 170.461 126.983C170.154 126.496 169.626 126.384 169.153 126.427C168.196 126.567 167.286 127.052 166.52 127.831C165.737 128.568 165.045 129.463 164.308 130.284C163.33 131.369 162.273 132.319 161.153 133.12" fill="#EBEBEB"/>
<path d="M116.792 78.4874C116.767 78.4933 116.74 78.4933 116.715 78.4874H116.491L115.631 78.4529L112.444 78.284L107.717 78.0115L104.926 77.8464C104.441 77.7965 103.951 77.8464 103.449 77.8464H101.929C97.8127 77.8464 94.0926 77.6008 91.4021 77.4434L88.2154 77.24L87.3549 77.1747L87.1283 77.1517C87.1028 77.1582 87.0765 77.1582 87.0509 77.1517H87.3549L88.2154 77.1786L91.405 77.3206C94.0983 77.4434 97.8185 77.6468 101.929 77.666H103.449C103.951 77.666 104.444 77.6315 104.929 77.666L107.72 77.8426L112.447 78.1573L115.633 78.3876L116.494 78.4605L116.721 78.4836L116.792 78.4874Z" fill="#263238"/>
<path d="M25.9188 97.8241H162.794V124.58H13.2811V114.731C13.2818 110.247 14.6136 105.946 16.9836 102.776C19.3535 99.6052 22.5675 97.8241 25.9188 97.8241Z" fill="#3E9C10"/>
<g opacity="0.4">
<path opacity="0.4" d="M25.9188 97.8241H162.794V124.58H13.2811V114.731C13.2818 110.247 14.6136 105.946 16.9836 102.776C19.3535 99.6052 22.5675 97.8241 25.9188 97.8241Z" fill="black"/>
</g>
<path d="M0.503418 123.659C0.503418 123.659 5.80689 131.431 15.5591 129.85C15.5591 129.85 11.6582 100.883 32.0977 99.2903C32.0977 99.2903 41.4655 98.1964 46.29 108.502C47.6796 111.523 48.4374 114.988 48.4842 118.535C48.5646 122.604 48.6592 129.474 48.4154 131.201C48.4154 131.201 115.958 127.444 127.781 129.244C127.781 129.244 122.4 106.832 137.226 99.6434C139.756 98.4152 142.676 98.2809 145.341 98.7837C148.975 99.4669 152.87 101.693 155.38 106.844C156.461 109.059 157.798 112.271 158.176 114.866C158.822 119.314 158.383 123.506 158.176 125.686L163.767 124.96L167.8 107.078L167.226 96.427L163.075 85.9257L153.237 87.4917C153.237 87.4917 135.035 80.5829 124.325 77.7004C113.615 74.8179 96.6974 74.2461 92.6015 75.1941C88.5055 76.1421 86.9452 77.1554 84.9144 78.3299C82.8837 79.5044 64.1566 91.4872 64.1566 91.4872L35.5368 91.7981C35.5368 91.7981 15.9865 91.2531 3.63846 110.909L5.27626 119.759L0.503418 123.659Z" fill="#3E9C10"/>
<path d="M64.1622 91.4877C64.1622 91.4877 81.7993 92.4933 86.4402 92.2553C91.0811 92.0174 116.19 88.0756 116.19 88.0756L116.552 78.4263C116.552 78.4263 108.222 77.6971 102.755 77.6971C98.206 77.6971 87.0339 77.129 87.0339 77.129C86.6783 77.3286 86.2882 77.5358 85.9239 77.7431C79.4358 81.447 72.1446 86.3292 64.1622 91.4877Z" fill="#455A64"/>
<path d="M7.81409 105.27C7.81409 105.27 10.4271 105.831 13.6941 103.869C16.9611 101.908 26.2572 95.2028 26.2572 95.2028L25.6434 93.4986C25.6434 93.4986 23.9769 93.9477 22.058 94.7614C19.9815 95.6604 17.96 96.773 16.0117 98.0891C14.483 99.1157 12.997 100.252 11.5601 101.494C10.2579 102.655 9.00712 103.916 7.81409 105.27Z" fill="white"/>
<path d="M12.8623 110.851C12.8623 110.905 11.0438 111.02 8.79503 111.108C6.54628 111.196 4.72205 111.223 4.71918 111.165C4.71631 111.108 6.54055 110.997 8.78929 110.909C11.038 110.82 12.8623 110.797 12.8623 110.851Z" fill="#263238"/>
<g opacity="0.4">
<path opacity="0.4" d="M5.28145 119.76L11.6863 123.755C11.6863 123.755 5.40478 125.421 0.5 123.671L5.28145 119.76Z" fill="white"/>
</g>
<path d="M16.2958 108.786C16.2958 108.786 14.2364 112.824 13.9409 116.04C13.6455 119.257 13.5996 123.291 13.5996 123.291H14.5318C14.5318 123.291 13.7574 113.476 17.621 108.786H16.2958Z" fill="#EBEBEB"/>
<g opacity="0.3">
<path opacity="0.3" d="M48.8992 101.21L46.662 98.3655L65.6271 97.4674L52.4789 99.7127L48.8992 101.21Z" fill="black"/>
</g>
<path d="M50.3535 123.92C50.3499 123.883 50.3499 123.846 50.3535 123.809C50.3535 123.721 50.3535 123.613 50.3392 123.479C50.3392 123.191 50.322 122.765 50.2933 122.22C50.2333 120.678 50.1146 119.14 49.9376 117.614C49.6768 115.345 49.2086 113.128 48.5436 111.012C47.7207 108.427 46.5303 106.081 45.0386 104.104C43.5499 102.132 41.7989 100.55 39.8756 99.4403L39.5487 99.2445L39.2159 99.0795L38.5648 98.7494C38.126 98.5767 37.7043 98.3656 37.2913 98.2389C36.8783 98.1122 36.4738 97.9587 36.078 97.8743L35.5044 97.7284L34.9479 97.6286C33.8066 97.4356 32.6545 97.3829 31.506 97.4713C31.0958 97.4943 30.7832 97.5557 30.568 97.5749L30.3214 97.6018H30.2382C30.2649 97.5886 30.2929 97.5808 30.3214 97.5787L30.5623 97.5327C30.7774 97.502 31.0929 97.4252 31.5002 97.3907C32.6577 97.2709 33.8212 97.3043 34.9737 97.4905L35.5474 97.5826L36.121 97.7207C36.5169 97.8052 36.9213 97.9395 37.3429 98.0777C37.7646 98.2159 38.1862 98.4116 38.6279 98.5843L39.2848 98.9106L39.6204 99.0756L39.9502 99.2714C41.8972 100.381 43.6703 101.972 45.1763 103.962C46.6805 105.954 47.8782 108.322 48.7014 110.932C49.36 113.062 49.8158 115.294 50.0581 117.576C50.2202 119.115 50.3151 120.666 50.3421 122.22C50.3621 122.769 50.3421 123.195 50.3593 123.483V123.813C50.3614 123.849 50.3594 123.885 50.3535 123.92Z" fill="#263238"/>
<g opacity="0.4">
<path opacity="0.4" d="M53.5406 122.55L64.8847 116.06L120.535 117.491L53.5406 122.55Z" fill="white"/>
</g>
<path d="M64.2047 116.451L48.5323 100.745L52.4791 99.7127L68.6764 116.156L64.2047 116.451Z" fill="#263238"/>
<path d="M69.1955 130.153C69.1799 130.107 69.1693 130.058 69.1639 130.008C69.141 129.896 69.1152 129.754 69.0807 129.574C69.009 129.19 68.9115 128.614 68.7939 127.904C68.5415 126.446 68.1858 124.381 67.7556 121.878V121.859V121.836C68.1457 120.101 68.5903 118.144 69.0693 116.033V116.079C68.8828 114.313 68.6849 112.409 68.4784 110.437C68.1916 107.662 67.9334 105.021 67.7757 102.599L67.7498 102.146C67.7411 101.993 67.7411 101.839 67.7498 101.685C67.777 101.391 67.8241 101.101 67.8904 100.818C68.0164 100.283 68.1717 99.7606 68.3551 99.2559C68.6849 98.3552 69.0507 97.4788 69.4507 96.6305C70.1822 95.0722 70.8361 93.8747 71.2951 93.0495C71.5245 92.6388 71.7081 92.3241 71.8343 92.1168C71.8917 92.017 71.9404 91.9403 71.9777 91.8788C72.015 91.8174 72.0293 91.7982 72.0322 91.8021C72.0215 91.8336 72.008 91.8632 71.9921 91.8904L71.8572 92.1398L71.341 93.0955C70.8964 93.9323 70.2567 95.1451 69.5425 96.7035C69.1501 97.5516 68.7911 98.4267 68.4669 99.325C68.29 99.8219 68.1396 100.335 68.0166 100.86C67.8808 101.413 67.8405 101.999 67.899 102.576C68.0625 104.986 68.335 107.627 68.6103 110.402C68.8169 112.375 69.0119 114.279 69.184 116.044V116.079L67.8502 121.878V121.836C68.2604 124.342 68.5989 126.415 68.8369 127.877L69.1008 129.555C69.1295 129.735 69.1496 129.881 69.1668 129.996C69.182 130.046 69.1917 130.099 69.1955 130.153Z" fill="#263238"/>
<path d="M69.6176 91.7752L91.5257 77.4395L97.2049 77.7006C97.2049 77.7006 83.0499 82.2143 80.3823 92.2205L69.6176 91.7752Z" fill="#263238"/>
<path d="M133.924 83.0396L131.768 86.2598L116.19 88.0868L116.551 78.4376C116.551 78.4376 131.515 81.4544 133.924 83.0396Z" fill="#263238"/>
<path d="M69.5997 125.674L69.789 125.651L70.3484 125.605L72.4996 125.452L80.4132 124.93L106.515 123.272L110.286 123.03C111.5 122.903 112.68 122.431 113.746 121.644C115.851 120.109 117.474 117.787 118.8 115.442C120.065 113.216 121.117 110.786 121.932 108.21C122.642 105.965 123.077 103.582 123.222 101.152C123.277 100.095 123.267 99.0329 123.191 97.9778C123.117 97.0369 122.992 96.1044 122.818 95.1874C122.531 93.719 122.092 92.311 121.516 91.0038C121.145 90.1836 120.717 89.4124 120.237 88.7009C120.07 88.4591 119.935 88.2863 119.847 88.1635L119.717 87.9754C119.717 87.9754 119.766 88.0292 119.858 88.1482C119.95 88.2671 120.087 88.436 120.26 88.6701C120.75 89.3783 121.187 90.1497 121.565 90.9731C122.151 92.2827 122.6 93.6944 122.898 95.1682C123.077 96.09 123.206 97.0276 123.286 97.9739C123.367 99.0375 123.381 100.108 123.329 101.175C123.19 103.621 122.757 106.022 122.046 108.283C121.235 110.881 120.182 113.331 118.911 115.576C117.592 117.917 115.949 120.247 113.826 121.836C112.741 122.637 111.541 123.118 110.307 123.248L106.526 123.49L80.4247 125.087L72.511 125.551L70.357 125.667L69.7976 125.69L69.5997 125.674Z" fill="#455A64"/>
<path d="M133.049 94.9995C133.023 94.6509 132.972 94.3065 132.897 93.9708C132.659 93.0681 132.185 92.3106 131.563 91.8368C131.108 91.486 130.605 91.2619 130.083 91.1781C129.562 91.0944 129.033 91.1526 128.529 91.3494C127.933 91.5769 127.394 92.0143 126.968 92.616C126.501 93.2526 126.24 94.1091 126.24 95.0014C126.24 95.8936 126.501 96.7502 126.968 97.3868C127.393 97.9895 127.933 98.426 128.529 98.6496C129.033 98.8484 129.562 98.9076 130.084 98.8238C130.605 98.74 131.109 98.5149 131.563 98.1622C132.186 97.6903 132.66 96.932 132.897 96.0281C132.972 95.6925 133.023 95.348 133.049 94.9995C133.056 95.0914 133.056 95.1839 133.049 95.2758C133.049 95.3867 133.04 95.4974 133.023 95.6059C133.011 95.7576 132.986 95.907 132.949 96.0512C132.726 96.9908 132.251 97.7866 131.615 98.285C131.149 98.6561 130.631 98.8956 130.094 98.9887C129.556 99.0818 129.01 99.0264 128.489 98.8262C127.866 98.5972 127.301 98.1446 126.857 97.5173C126.364 96.845 126.088 95.941 126.088 94.9995C126.088 94.0579 126.364 93.1539 126.857 92.4816C127.302 91.8557 127.866 91.4034 128.489 91.1728C129.01 90.9722 129.556 90.917 130.094 91.0108C130.632 91.1045 131.15 91.3452 131.615 91.7178C132.251 92.2139 132.727 93.0087 132.949 93.9478C132.986 94.0921 133.011 94.2414 133.023 94.393C133.041 94.5029 133.049 94.6148 133.049 94.727C133.056 94.8176 133.056 94.9089 133.049 94.9995Z" fill="#263238"/>
<path d="M153.523 87.4495H153.449H153.225L152.364 87.4725L149.209 87.5531C146.542 87.6222 142.856 87.7297 138.789 87.9369C134.721 88.1442 131.044 88.386 128.377 88.6508C127.049 88.7928 125.97 88.9003 125.222 89.0078L124.361 89.1153L124.137 89.1383C124.112 89.1434 124.086 89.1434 124.06 89.1383C124.085 89.133 124.11 89.133 124.135 89.1383L124.355 89.0961L125.216 88.9502C125.956 88.8197 127.032 88.6892 128.371 88.528C131.033 88.2248 134.716 87.9484 138.786 87.7604C142.856 87.5723 146.53 87.4802 149.209 87.4456C150.543 87.4456 151.624 87.4264 152.364 87.4456H153.225H153.449C153.473 87.4421 153.499 87.4434 153.523 87.4495Z" fill="#263238"/>
<path d="M154.863 87.2347L164.3 89.0195L163.075 85.9259L154.863 87.2347Z" fill="#EBEBEB"/>
<path d="M162.209 88.4439C162.196 88.51 162.179 88.5743 162.157 88.6358L161.985 89.1694C161.833 89.6338 161.598 90.2978 161.296 91.0885C160.508 93.196 159.637 95.246 158.686 97.2296C157.735 99.2134 156.705 101.129 155.603 102.968C155.178 103.674 154.828 104.234 154.576 104.61L154.289 105.044C154.257 105.097 154.221 105.145 154.18 105.186C154.18 105.186 154.206 105.125 154.266 105.017L154.533 104.561C154.771 104.177 155.107 103.593 155.523 102.879C156.352 101.455 157.453 99.425 158.563 97.1221C159.673 94.8192 160.571 92.6199 161.208 91.0194C161.52 90.221 161.781 89.5685 161.933 89.1003L162.131 88.5821C162.153 88.5322 162.179 88.4858 162.209 88.4439Z" fill="#263238"/>
<path d="M160.345 122.742C160.34 122.701 160.34 122.66 160.345 122.619V122.235C160.345 121.917 160.345 121.468 160.345 120.846C160.282 119.142 160.09 117.451 159.771 115.799C159.293 113.353 158.624 110.981 157.777 108.721C157.298 107.374 156.753 106.07 156.148 104.818C155.507 103.469 154.703 102.273 153.768 101.279C152.808 100.323 151.744 99.5736 150.612 99.0564C149.561 98.5625 148.484 98.1776 147.389 97.9049C145.535 97.4435 143.646 97.2862 141.764 97.4367C140.492 97.5334 139.227 97.7683 137.983 98.1391L137.41 98.3195L136.985 98.4653L136.721 98.5536C136.693 98.5664 136.663 98.5742 136.632 98.5766C136.66 98.5587 136.689 98.5446 136.718 98.5344L136.977 98.4269L137.398 98.2619L137.972 98.0623C139.216 97.66 140.484 97.4032 141.761 97.2947C143.657 97.1257 145.561 97.2753 147.429 97.7399C148.533 98.0109 149.619 98.3959 150.678 98.8914C151.824 99.4141 152.901 100.173 153.871 101.141C154.817 102.151 155.632 103.363 156.283 104.729C156.889 105.991 157.434 107.302 157.915 108.656C158.758 110.932 159.419 113.321 159.886 115.783C160.191 117.447 160.364 119.149 160.402 120.861C160.402 121.468 160.402 121.94 160.382 122.258C160.382 122.408 160.382 122.527 160.365 122.619C160.362 122.661 160.355 122.702 160.345 122.742Z" fill="#263238"/>
<path d="M167.825 105.125C167.702 105.197 167.574 105.254 167.443 105.298C167.2 105.401 166.838 105.532 166.391 105.681C164.055 106.441 161.663 106.846 159.26 106.89C158.798 106.89 158.426 106.89 158.167 106.89C158.034 106.892 157.9 106.877 157.769 106.848C157.9 106.818 158.034 106.806 158.167 106.814L159.257 106.764C160.175 106.718 161.443 106.606 162.834 106.38C164.225 106.153 165.473 105.823 166.371 105.566L167.432 105.248C167.56 105.191 167.691 105.15 167.825 105.125Z" fill="#263238"/>
<path d="M59.6586 105.57C59.6586 105.57 59.7217 105.57 59.8421 105.539L60.3785 105.474L62.4466 105.247L70.0561 104.449C76.4754 103.793 85.347 102.914 95.1566 102.1C100.061 101.697 104.737 101.359 108.99 101.094C113.244 100.83 117.085 100.711 120.303 100.987C122.845 101.158 125.372 101.612 127.858 102.342C128.736 102.63 129.413 102.856 129.866 103.048L130.382 103.255L130.557 103.332C130.557 103.332 130.494 103.332 130.376 103.275L129.857 103.09C129.401 102.91 128.71 102.707 127.849 102.419C125.36 101.713 122.833 101.275 120.291 101.11C117.079 100.864 113.241 100.979 108.99 101.263C104.74 101.547 100.064 101.881 95.1594 102.284C85.3527 103.087 76.4811 103.954 70.059 104.587L62.4494 105.332L60.3814 105.524L59.845 105.57H59.6586Z" fill="#263238"/>
<path d="M142.867 138.666C150.671 138.518 156.908 129.932 156.798 119.489C156.687 109.046 150.271 100.7 142.467 100.848C134.663 100.995 128.426 109.581 128.536 120.024C128.647 130.467 135.063 138.813 142.867 138.666Z" fill="#263238"/>
<path d="M128.535 119.441C128.535 119.441 128.535 119.472 128.535 119.487C128.508 121.97 128.847 124.436 129.532 126.744C130.217 129.052 131.236 131.157 132.529 132.938C133.822 134.719 135.364 136.142 137.069 137.126C138.773 138.11 140.605 138.634 142.461 138.67C146.208 138.743 149.824 136.821 152.512 133.326C155.201 129.832 156.742 125.051 156.796 120.036V119.986L128.535 119.441Z" fill="#263238"/>
<path d="M132.743 119.572C132.715 122.197 133.27 124.774 134.337 126.978C135.404 129.181 136.935 130.912 138.737 131.951C140.539 132.99 142.53 133.291 144.46 132.815C146.39 132.34 148.171 131.109 149.578 129.28C150.985 127.45 151.955 125.103 152.365 122.535C152.776 119.968 152.608 117.295 151.883 114.855C151.159 112.415 149.91 110.318 148.294 108.828C146.679 107.337 144.77 106.522 142.808 106.483C141.504 106.458 140.21 106.776 138.999 107.42C137.787 108.064 136.683 109.021 135.748 110.236C134.813 111.452 134.067 112.902 133.551 114.504C133.035 116.106 132.761 117.828 132.743 119.572Z" fill="#FAFAFA"/>
<path d="M142.808 106.483C141.505 106.458 140.211 106.776 139 107.419C137.788 108.063 136.684 109.02 135.749 110.235C134.815 111.45 134.068 112.9 133.552 114.501C133.036 116.102 132.761 117.824 132.743 119.568L152.586 119.952C152.605 118.208 152.367 116.477 151.886 114.856C151.405 113.236 150.69 111.758 149.782 110.507C148.874 109.257 147.79 108.258 146.594 107.567C145.397 106.877 144.111 106.509 142.808 106.483Z" fill="#E0E0E0"/>
<path d="M136.621 119.645C136.603 121.244 136.94 122.814 137.59 124.157C138.24 125.5 139.172 126.555 140.27 127.188C141.367 127.822 142.581 128.006 143.756 127.717C144.932 127.427 146.017 126.678 146.874 125.563C147.732 124.449 148.323 123.019 148.573 121.455C148.823 119.891 148.721 118.262 148.28 116.776C147.838 115.29 147.077 114.012 146.093 113.104C145.109 112.196 143.945 111.699 142.75 111.677C141.957 111.661 141.169 111.854 140.431 112.246C139.693 112.638 139.021 113.221 138.452 113.961C137.882 114.701 137.428 115.584 137.113 116.559C136.799 117.534 136.632 118.583 136.621 119.645Z" fill="#263238"/>
<path d="M32.2417 138.67C40.0465 138.601 46.3315 130.078 46.2798 119.635C46.228 109.191 39.859 100.78 32.0543 100.85C24.2495 100.919 17.9644 109.441 18.0162 119.885C18.068 130.329 24.4369 138.74 32.2417 138.67Z" fill="#263238"/>
<path d="M18.0108 119.441V119.487C17.9838 121.97 18.3227 124.436 19.0079 126.744C19.6932 129.052 20.7114 131.157 22.0045 132.938C23.2976 134.719 24.8403 136.142 26.5444 137.126C28.2485 138.11 30.0807 138.634 31.9363 138.67C35.684 138.743 39.2998 136.821 41.9883 133.326C44.6768 129.832 46.2177 125.051 46.2721 120.036C46.2721 120.017 46.2721 120.001 46.2721 119.986L18.0108 119.441Z" fill="#263238"/>
<path d="M22.2189 119.572C22.1913 122.197 22.746 124.774 23.813 126.978C24.8799 129.181 26.4111 130.912 28.2129 131.951C30.0148 132.99 32.0065 133.291 33.9361 132.815C35.8657 132.34 37.6467 131.109 39.0538 129.279C40.4609 127.45 41.4309 125.103 41.8413 122.535C42.2517 119.968 42.084 117.295 41.3594 114.855C40.6348 112.415 39.3858 110.318 37.7704 108.828C36.1549 107.337 34.2456 106.522 32.2837 106.483C30.9806 106.458 29.6864 106.776 28.4752 107.421C27.2641 108.065 26.1596 109.022 25.2249 110.237C24.2902 111.453 23.5437 112.903 23.0279 114.504C22.5121 116.106 22.2372 117.828 22.2189 119.572Z" fill="#FAFAFA"/>
<path d="M32.2837 106.483C30.9808 106.458 29.6869 106.776 28.4759 107.42C27.2649 108.064 26.1606 109.021 25.2259 110.236C24.2913 111.451 23.5447 112.9 23.0287 114.502C22.5128 116.103 22.2376 117.824 22.2189 119.568L42.0617 119.952C42.0811 118.208 41.8435 116.476 41.3625 114.856C40.8814 113.235 40.1665 111.757 39.2584 110.506C38.3503 109.255 37.267 108.256 36.0702 107.566C34.8735 106.876 33.5868 106.508 32.2837 106.483Z" fill="#E0E0E0"/>
<path d="M26.0964 119.645C26.0789 121.244 26.4163 122.814 27.0657 124.157C27.7151 125.5 28.6475 126.554 29.7449 127.188C30.8423 127.822 32.0555 128.006 33.2311 127.717C34.4067 127.428 35.4918 126.679 36.3493 125.565C37.2068 124.45 37.7982 123.021 38.0486 121.457C38.299 119.893 38.1973 118.265 37.7562 116.779C37.3152 115.292 36.5547 114.014 35.5708 113.106C34.5869 112.198 33.4239 111.7 32.2288 111.677C31.4351 111.661 30.6469 111.854 29.9092 112.246C29.1715 112.638 28.4986 113.221 27.9292 113.961C27.3597 114.701 26.9048 115.583 26.5903 116.559C26.2758 117.534 26.108 118.583 26.0964 119.645Z" fill="#263238"/>
<path d="M125.056 87.0468C124.853 87.0353 124.649 87.0469 124.448 87.0814C124.046 87.1198 123.455 87.1889 122.695 87.2848C121.175 87.4806 118.966 87.7761 116.259 88.1599L106.719 89.5417L101.088 90.4014L98.1139 90.8889C97.11 91.0731 96.086 91.2727 95.0506 91.3955C92.9739 91.6834 90.9432 91.8945 88.9841 92.0826L86.0958 92.3359L85.3902 92.3896H83.3193C79.7052 92.3896 76.4526 92.2937 73.7219 92.1401C70.9913 91.9866 68.7856 91.8024 67.2597 91.6642L65.5043 91.4953L65.0482 91.4454L64.8933 91.4224C64.8933 91.4224 64.9478 91.4224 65.0511 91.4224L65.5072 91.4531L67.2626 91.5836C68.7885 91.6987 70.9913 91.8638 73.7248 91.9943C76.4583 92.1248 79.7052 92.2054 83.3193 92.2016H85.3844L86.0872 92.1478L88.987 91.8983C90.9461 91.7103 92.9768 91.4953 95.0477 91.2075C96.086 91.0693 97.1014 90.8889 98.1082 90.7008C99.115 90.5127 100.116 90.3707 101.085 90.2172L106.719 89.3728C110.307 88.847 113.542 88.3941 116.262 88.0294C118.981 87.6648 121.181 87.3884 122.704 87.2196C124.227 87.0507 125.062 86.9816 125.056 87.0468Z" fill="#263238"/>
<path d="M79.5904 94.3586C79.5904 94.3586 81.9396 88.2789 83.606 87.231C83.606 87.231 88.0433 86.6016 88.7202 86.8127C89.3971 87.0238 89.6094 88.4209 89.6094 89.3267C89.6094 90.2325 89.7126 91.8446 89.1906 92.3973C88.6686 92.95 89.0874 92.8885 88.0949 93.2378C87.1025 93.5871 84.9713 93.0498 84.9713 93.0498L85.023 95.6329C85.023 95.6329 82.6738 97.2411 81.1594 96.7536C80.7389 96.6367 80.3583 96.3398 80.0752 95.9076C79.7922 95.4755 79.622 94.9317 79.5904 94.3586Z" fill="#3E9C10"/>
<path d="M85.043 95.6171C85.0321 95.5607 85.0263 95.5027 85.0258 95.4444C85.0258 95.3139 85.0258 95.1451 85.0057 94.9378C84.9914 94.4772 84.9713 93.8362 84.9483 93.0187V92.9496H85C85.5863 93.0899 86.1781 93.1848 86.7726 93.2336C87.1254 93.2652 87.4795 93.2549 87.831 93.2029C88.0178 93.1674 88.202 93.1109 88.3817 93.034C88.5624 92.9496 88.7718 92.9112 88.8722 92.7116C88.9383 92.6001 89.0122 92.4972 89.093 92.4046C89.1725 92.3251 89.243 92.2308 89.3024 92.1244C89.416 91.8932 89.4895 91.6309 89.5175 91.3567C89.5756 90.7703 89.5929 90.178 89.5692 89.5873C89.5902 88.9705 89.522 88.3541 89.3684 87.7719C89.2935 87.4814 89.1594 87.2248 88.9812 87.0311C88.7818 86.8724 88.5492 86.8051 88.3186 86.8392C87.4868 86.8392 86.6693 86.9351 85.8863 87.0157C85.1032 87.0963 84.3517 87.1923 83.6433 87.2882H83.6633C83.2532 87.5962 82.8863 87.9976 82.5791 88.4742C82.2878 88.8995 82.0148 89.3468 81.7617 89.8138C81.2741 90.6889 80.9012 91.4988 80.5771 92.1743C80.2529 92.8498 80.0292 93.391 79.8686 93.7633L79.685 94.1893C79.6661 94.2399 79.643 94.2876 79.6162 94.3313C79.6277 94.2765 79.6441 94.2237 79.6649 94.174L79.8313 93.7364C79.9776 93.3526 80.2042 92.8037 80.5054 92.1167C80.8065 91.4297 81.188 90.6121 81.6699 89.7217C81.9233 89.2476 82.1962 88.7927 82.4873 88.3591C82.8025 87.8616 83.1813 87.4431 83.606 87.1232H83.6289C84.3374 87.0234 85.0889 86.9236 85.8719 86.8353C86.655 86.7471 87.4753 86.6588 88.3215 86.6549C88.449 86.6539 88.5764 86.6642 88.7029 86.6857C88.836 86.7095 88.9623 86.7781 89.0701 86.8852C89.2715 87.1003 89.4228 87.388 89.5061 87.7143C89.6651 88.3188 89.7352 88.9587 89.7126 89.5989C89.7374 90.2026 89.7172 90.8082 89.6523 91.4066C89.6195 91.7049 89.5372 91.9895 89.4114 92.2395C89.3451 92.3559 89.2669 92.4593 89.1791 92.5466C89.1048 92.6326 89.0366 92.7277 88.9754 92.8306C88.244 93.4946 87.438 93.4294 86.7668 93.3872C86.1687 93.3306 85.5738 93.2242 84.9856 93.0686L85.0344 93.011C85.0344 93.8132 85.0487 94.4542 85.0545 94.9301C85.0545 95.1374 85.0545 95.3139 85.0545 95.4329C85.0554 95.4947 85.0515 95.5564 85.043 95.6171Z" fill="#263238"/>
<path d="M54.8542 102.902C54.284 103.006 53.708 103.041 53.1332 103.006C52.5584 103.041 51.9824 103.006 51.4122 102.902C51.9827 102.803 52.5585 102.77 53.1332 102.803C53.7079 102.77 54.2837 102.803 54.8542 102.902Z" fill="#455A64"/>
<path d="M57.3209 105.332C56.7506 105.433 56.1746 105.466 55.5999 105.431C55.0252 105.466 54.4493 105.433 53.8789 105.332C54.4494 105.233 55.0252 105.2 55.5999 105.232C56.1746 105.2 56.7504 105.233 57.3209 105.332Z" fill="#455A64"/>
<path d="M59.7736 107.723C59.2032 107.822 58.6274 107.855 58.0527 107.822C57.4779 107.855 56.9021 107.822 56.3317 107.723C56.9021 107.624 57.4779 107.59 58.0527 107.623C58.6274 107.59 59.2032 107.624 59.7736 107.723Z" fill="#455A64"/>
<path d="M62.2259 110.133C61.6554 110.232 61.0796 110.265 60.5049 110.233C59.9302 110.265 59.3544 110.232 58.7839 110.133C59.3543 110.032 59.9302 109.999 60.5049 110.034C61.0796 109.999 61.6556 110.032 62.2259 110.133Z" fill="#455A64"/>
<path d="M64.6784 112.544C64.1079 112.643 63.5321 112.676 62.9574 112.644C62.3827 112.676 61.8069 112.643 61.2364 112.544C61.8066 112.44 62.3826 112.405 62.9574 112.44C63.5322 112.405 64.1083 112.44 64.6784 112.544Z" fill="#455A64"/>
<path d="M67.1333 114.95C66.563 115.052 65.9871 115.085 65.4124 115.05C64.8376 115.085 64.2617 115.052 63.6914 114.95C64.2618 114.851 64.8376 114.818 65.4124 114.851C65.9871 114.818 66.5629 114.851 67.1333 114.95Z" fill="#455A64"/>
<path d="M88.1264 87.653C87.4243 87.7517 86.718 87.785 86.0125 87.7527C85.306 87.785 84.5987 87.7517 83.8957 87.653C84.5986 87.5521 85.306 87.5187 86.0125 87.5534C86.718 87.5188 87.4244 87.5521 88.1264 87.653Z" fill="white"/>
<path d="M37.9714 97.4404C37.8257 97.4217 37.6816 97.3845 37.5412 97.3291C37.2687 97.2446 36.87 97.1333 36.3738 97.0143C35.8776 96.8954 35.2838 96.7917 34.6241 96.7111C33.1902 96.5484 31.7471 96.5999 30.3217 96.8647C29.6648 96.9875 29.0768 97.1372 28.5864 97.2907C28.0959 97.4442 27.7029 97.5824 27.439 97.6745C27.3007 97.7376 27.1587 97.7851 27.0145 97.8165C27.1445 97.7267 27.281 97.6546 27.4218 97.6016C27.6857 97.4711 28.0787 97.3099 28.5691 97.1372C29.1431 96.9403 29.7242 96.7828 30.3102 96.6651C31.7474 96.3736 33.2061 96.322 34.6528 96.5115C35.3182 96.6037 35.9148 96.7226 36.4111 96.8608C36.9073 96.999 37.3031 97.1295 37.5727 97.2446C37.7093 97.2955 37.8426 97.361 37.9714 97.4404Z" fill="white"/>
<path d="M120.538 117.491C120.538 117.545 105.571 118.696 87.108 120.063C68.6448 121.429 53.6695 122.492 53.6666 122.435C53.6637 122.377 68.6305 121.229 87.0994 119.863C105.568 118.497 120.538 117.434 120.538 117.491Z" fill="white"/>
<path d="M149.319 97.2713C149.155 97.2346 148.995 97.178 148.84 97.1024C148.688 97.041 148.501 96.9681 148.283 96.8952C148.065 96.8222 147.819 96.7263 147.54 96.6495C146.99 96.473 146.324 96.3118 145.581 96.1774C144.775 96.0435 143.964 95.9705 143.152 95.9586C142.34 95.9575 141.529 96.0165 140.722 96.1352C139.977 96.258 139.311 96.4077 138.758 96.5728C138.471 96.6457 138.233 96.7378 138.015 96.8069C137.797 96.876 137.607 96.9451 137.455 97.0065C137.298 97.0759 137.137 97.1298 136.973 97.1677C137.123 97.0725 137.279 96.9942 137.438 96.9335C137.587 96.8606 137.774 96.78 137.992 96.6994C138.21 96.6188 138.456 96.5152 138.735 96.4346C139.384 96.2256 140.042 96.0654 140.705 95.9548C141.518 95.8221 142.336 95.7554 143.155 95.7552C143.973 95.7706 144.79 95.8513 145.601 95.997C146.263 96.1199 146.919 96.2916 147.566 96.5113C147.853 96.5958 148.088 96.7033 148.306 96.7877C148.524 96.8721 148.708 96.9566 148.857 97.0295C149.015 97.0959 149.169 97.1767 149.319 97.2713Z" fill="white"/>
<path d="M128.515 90.7735C128.515 90.8042 128.302 90.8464 127.975 90.9884C127.119 91.3653 126.39 92.1364 125.919 93.1647C125.832 93.3885 125.736 93.6063 125.632 93.8172C125.657 93.5613 125.723 93.3154 125.824 93.0956C126.042 92.5452 126.342 92.0616 126.707 91.6757C127.072 91.2897 127.493 91.0099 127.944 90.8541C128.128 90.7733 128.322 90.7458 128.515 90.7735Z" fill="white"/>
<path d="M140.232 87.1119C139.945 87.2181 139.651 87.2887 139.354 87.3227C138.806 87.4185 138.046 87.5182 137.206 87.568C136.365 87.6179 135.602 87.6064 135.052 87.568C134.753 87.5721 134.455 87.5362 134.163 87.4607C134.459 87.4211 134.757 87.4096 135.055 87.4262C135.602 87.4262 136.363 87.4262 137.2 87.361C138.038 87.2959 138.795 87.2345 139.343 87.1732C139.637 87.1213 139.935 87.1008 140.232 87.1119Z" fill="white"/>
<path d="M108.749 90.4781C108.749 90.5319 105.933 91.1229 102.439 91.7985C98.9455 92.474 96.1288 92.9768 96.1087 92.9231C96.0886 92.8693 98.9283 92.2744 102.419 91.6027C105.91 90.931 108.744 90.4244 108.749 90.4781Z" fill="white"/>
<path d="M105.872 82.0955C105.89 82.1454 104.544 82.9744 102.869 83.9455C101.194 84.9166 99.8231 85.6612 99.8059 85.6113C99.7887 85.5614 101.134 84.7323 102.809 83.7613C104.484 82.7902 105.855 82.0456 105.872 82.0955Z" fill="white"/>
<path d="M104.272 81.0399C104.151 81.1581 104.022 81.2609 103.887 81.3469C103.635 81.5312 103.268 81.7922 102.809 82.1146C101.894 82.7364 100.612 83.5616 99.1746 84.4175C97.7376 85.2734 96.4182 85.9528 95.4458 86.4402C94.964 86.682 94.571 86.8663 94.2985 86.9891C94.1597 87.0617 94.0168 87.1195 93.8712 87.1618C94.0004 87.0618 94.1368 86.9795 94.2785 86.9162L95.4057 86.3097C96.3608 85.7954 97.6716 85.0777 99.1058 84.2333C100.54 83.3889 101.828 82.5905 102.754 81.9994L103.853 81.3009C103.987 81.1985 104.127 81.1112 104.272 81.0399Z" fill="white"/>
<path d="M154.929 114.671C154.7 113.856 154.44 113.058 154.149 112.279C153.813 111.534 153.449 110.811 153.059 110.115C153.221 110.259 153.364 110.439 153.48 110.648C153.785 111.121 154.052 111.636 154.278 112.183C154.504 112.731 154.685 113.31 154.817 113.911C154.887 114.153 154.925 114.41 154.929 114.671Z" fill="#455A64"/>
<path d="M154.771 118.846C154.727 118.517 154.697 118.185 154.68 117.852C154.606 117.057 154.475 116.274 154.287 115.514C154.093 114.758 153.845 114.027 153.547 113.334C153.408 113.056 153.282 112.768 153.168 112.471C153.352 112.702 153.509 112.969 153.636 113.261C153.969 113.944 154.235 114.68 154.427 115.453C154.622 116.224 154.742 117.025 154.786 117.837C154.818 118.172 154.813 118.512 154.771 118.846Z" fill="#455A64"/>
<path d="M133.118 127.44C132.942 127.227 132.79 126.98 132.668 126.707C132.018 125.438 131.578 123.999 131.374 122.485C131.32 122.175 131.297 121.856 131.308 121.537C131.484 122.58 131.712 123.605 131.991 124.608C132.318 125.585 132.695 126.531 133.118 127.44Z" fill="#455A64"/>
<path d="M133.557 130.583C133.557 130.583 133.483 130.518 133.365 130.372C133.248 130.226 133.078 130.012 132.895 129.731C132.398 128.994 131.956 128.193 131.575 127.34C131.195 126.488 130.877 125.588 130.626 124.653C130.534 124.296 130.465 124.001 130.428 123.794C130.399 123.689 130.383 123.579 130.382 123.467C130.405 123.467 130.514 123.905 130.726 124.619C131.001 125.53 131.327 126.411 131.702 127.256C132.081 128.098 132.506 128.901 132.975 129.658C133.181 129.953 133.375 130.262 133.557 130.583Z" fill="#455A64"/>
<path d="M23.6098 129.631C23.44 129.465 23.2867 129.27 23.1538 129.052C22.8143 128.555 22.4982 128.031 22.2072 127.482C21.9132 126.934 21.6459 126.361 21.407 125.766C21.2941 125.528 21.2072 125.27 21.1488 124.999C21.189 124.968 21.6479 126.085 22.3277 127.359C23.0075 128.634 23.6414 129.589 23.6098 129.631Z" fill="#455A64"/>
<path d="M24.014 131.816C23.5256 131.379 23.0795 130.864 22.686 130.28C22.2577 129.738 21.8819 129.125 21.5674 128.457C21.6018 128.423 22.1181 129.225 22.7921 130.138C23.4662 131.052 24.0427 131.77 24.014 131.816Z" fill="#455A64"/>
<path d="M43.6683 117.449C43.6252 117.449 43.522 116.459 43.1979 115.304C42.8737 114.148 42.4664 113.304 42.5066 113.269C43.2102 114.465 43.6119 115.928 43.6539 117.449H43.6683Z" fill="#455A64"/>
<path d="M44.3877 117.814C44.2523 116.86 44.0605 115.921 43.814 115.008C43.5172 114.12 43.1691 113.264 42.7728 112.448C42.9383 112.635 43.0814 112.855 43.1973 113.1C43.5019 113.668 43.7561 114.281 43.9546 114.927C44.1511 115.576 44.2888 116.254 44.3647 116.946C44.4075 117.232 44.4152 117.525 44.3877 117.814Z" fill="#455A64"/>
<path d="M21.1202 134.302C20.9526 134.17 20.8016 134.003 20.6728 133.807C20.3373 133.373 20.0275 132.905 19.7463 132.406C19.4638 131.908 19.2097 131.382 18.9862 130.833C18.8815 130.613 18.8023 130.374 18.751 130.123C18.7912 130.096 19.2099 131.132 19.8639 132.284C20.5179 133.435 21.1518 134.26 21.1202 134.302Z" fill="#455A64"/>
<path d="M21.8691 136.628C21.786 136.595 21.7068 136.546 21.6339 136.483C21.4877 136.383 21.284 136.218 21.0373 136.003C19.7496 134.859 18.6632 133.354 17.8535 131.593C17.7015 131.255 17.5839 130.975 17.5151 130.775C17.4693 130.677 17.4354 130.569 17.4147 130.457C17.4376 130.457 17.6155 130.867 17.9424 131.516C18.7935 133.211 19.8616 134.691 21.0976 135.888C21.5823 136.344 21.8892 136.598 21.8691 136.628Z" fill="#455A64"/>
<path d="M193.307 106.322C193.307 106.375 189.271 106.421 184.294 106.421C179.318 106.421 175.282 106.375 175.282 106.322C175.282 106.268 179.318 106.222 184.294 106.222C189.271 106.222 193.307 106.264 193.307 106.322Z" fill="#263238"/>
<path d="M193.442 104.257C193.442 104.314 190.574 104.356 187.043 104.356C183.512 104.356 180.643 104.314 180.643 104.257C180.643 104.199 183.512 104.157 187.043 104.157C190.574 104.157 193.442 104.203 193.442 104.257Z" fill="#263238"/>
</svg>
