<svg width="24" height="23" viewBox="0 0 24 23" fill="none" xmlns="http://www.w3.org/2000/svg">
<path fill-rule="evenodd" clip-rule="evenodd" d="M12.7398 2.80982C12.7398 2.29255 12.3205 1.87321 11.8032 1.87321C11.2859 1.87321 10.8666 2.29255 10.8666 2.80982V3.51227H10.3445C8.26047 3.51227 6.53562 5.13261 6.40553 7.21256L6.19854 10.522C6.11962 11.7838 5.696 12.9998 4.97382 14.0375C4.32131 14.975 4.90221 16.27 6.03637 16.406L9.22751 16.789V17.7955C9.22751 19.218 10.3807 20.3712 11.8032 20.3712C13.2257 20.3712 14.3788 19.218 14.3788 17.7955V16.789L17.5699 16.406C18.7042 16.27 19.285 14.975 18.6325 14.0375C17.9103 12.9998 17.4867 11.7838 17.4078 10.522L17.2008 7.21256C17.0707 5.13261 15.3459 3.51227 13.2618 3.51227H12.7398V2.80982ZM10.6324 17.7955C10.6324 18.4421 11.1565 18.9663 11.8032 18.9663C12.4498 18.9663 12.9739 18.4421 12.9739 17.7955V17.093H10.6324V17.7955Z" fill="#595C76"/>
</svg>
