<svg width="17" height="17" viewBox="0 0 17 17" fill="none" xmlns="http://www.w3.org/2000/svg">
<path d="M8.17627 0.334473C9.23714 0.334473 10.2546 0.7559 11.0047 1.50605C11.7548 2.25619 12.1763 3.27361 12.1763 4.33447C12.1763 5.39534 11.7548 6.41275 11.0047 7.1629C10.2546 7.91305 9.23714 8.33447 8.17627 8.33447C7.1154 8.33447 6.09799 7.91305 5.34784 7.1629C4.5977 6.41275 4.17627 5.39534 4.17627 4.33447C4.17627 3.27361 4.5977 2.25619 5.34784 1.50605C6.09799 0.7559 7.1154 0.334473 8.17627 0.334473ZM8.17627 10.3345C12.5963 10.3345 16.1763 12.1245 16.1763 14.3345V16.3345H0.17627V14.3345C0.17627 12.1245 3.75627 10.3345 8.17627 10.3345Z" fill="white"/>
</svg>
