<svg width="40" height="30" viewBox="0 0 40 30" fill="none" xmlns="http://www.w3.org/2000/svg">
<path d="M25.4545 10.9091H35.2545L29.2 3.63636H25.4545V10.9091ZM30 26.3636C30.7091 26.3636 31.3455 26.1273 31.8909 25.5818C32.4364 25.0364 32.7273 24.4 32.7273 23.6364C32.7273 22.9273 32.4364 22.2909 31.8909 21.7455C31.3455 21.2 30.7091 20.9091 30 20.9091C29.2364 20.9091 28.6 21.2 28.0545 21.7455C27.5091 22.2909 27.2727 22.9273 27.2727 23.6364C27.2727 24.4 27.5091 25.0364 28.0545 25.5818C28.6 26.1273 29.2364 26.3636 30 26.3636ZM9.09091 26.3636C9.89091 26.3636 10.5455 26.1273 11.0545 25.5818C11.5636 25.0364 11.8182 24.4 11.8182 23.6364C11.8182 22.9273 11.5636 22.2909 11.0545 21.7455C10.5455 21.2 9.89091 20.9091 9.09091 20.9091C8.29091 20.9091 7.63636 21.2 7.12727 21.7455C6.61818 22.2909 6.36364 22.9273 6.36364 23.6364C6.36364 24.4 6.61818 25.0364 7.12727 25.5818C7.63636 26.1273 8.29091 26.3636 9.09091 26.3636ZM30.9091 0L40 10.9091V23.6364H35.4545C35.4545 25.1455 34.8909 26.4182 33.8 27.5091C32.7273 28.5818 31.4545 29.0909 30 29.0909C28.4909 29.0909 27.2182 28.5818 26.1455 27.5091C25.0545 26.4182 24.5455 25.1455 24.5455 23.6364H14.5455C14.5455 25.1455 14 26.4182 12.9273 27.5091C11.8182 28.5818 10.5636 29.0909 9.09091 29.0909C7.61818 29.0909 6.36364 28.5818 5.25455 27.5091C4.18182 26.4182 3.63636 25.1455 3.63636 23.6364H0V16.3636H14.8909L3.63636 7.47273V12.7273H0V1.81818H1.81818L21.8182 12.8364V0H30.9091Z" fill="#00197E"/>
</svg>
